<?xml version="1.0" encoding="UTF-8"?><!-- Generator: Adobe Illustrator 23.1.1, SVG Export Plug-In . SVG Version: 6.00 Build 0)  --><svg xmlns="http://www.w3.org/2000/svg" xmlns:xlink="http://www.w3.org/1999/xlink" enable-background="new 0 0 219.5 219.5" height="219.5" id="Layer_1" preserveAspectRatio="xMidYMid meet" version="1.1" viewBox="-0.0 0.0 219.5 219.5" width="219.5" x="0px" xml:space="preserve" y="0px" zoomAndPan="magnify">
<g id="change1_1"><path d="m6.4 146.6c-0.6-1.6-1.1-3.3-1.6-4.9l137-137c1.6 0.5 3.3 1 4.9 1.6l-140.3 140.3zm119.4-145.4c-1.9-0.3-3.9-0.5-5.8-0.7l-119.5 119.5c0.2 1.9 0.4 3.9 0.7 5.8l124.6-124.6zm46.6 18.4c-1.3-0.9-2.6-1.8-3.9-2.6l-151.5 151.5c0.8 1.3 1.7 2.6 2.6 3.9l152.8-152.8zm-16.5-9.5c-1.5-0.7-3-1.4-4.5-2l-143.2 143.2c0.6 1.5 1.3 3 2 4.5l145.7-145.7zm8.5 4.5c-1.4-0.8-2.8-1.6-4.2-2.3l-148 148c0.7 1.4 1.5 2.8 2.3 4.2l149.9-149.9zm-98.7-5.4c-4.7 2.1-9.3 4.5-13.7 7.2l-35.6 35.6c-2.8 4.4-5.2 9-7.2 13.7l56.5-56.5zm41.7-9.2l-107.4 107.4c0 2.2 0 4.3 0.1 6.5l113.7-113.8c-2.1-0.1-4.3-0.1-6.4-0.1zm112.1 109.2l-110.3 110.3c2.2 0 4.5 0 6.7-0.2l103.4-103.4c0.1-2.2 0.2-4.5 0.2-6.7zm-39.7-83.9c-1.2-1-2.4-2-3.6-2.9l-153.8 153.8c0.9 1.2 1.9 2.4 2.9 3.6l154.5-154.5zm-79.3-24.9c-2.5 0.2-4.9 0.5-7.4 0.9l-91.8 91.8c-0.4 2.5-0.7 4.9-0.9 7.4l100.1-100.1zm-15.4 2.4c-3 0.7-6 1.5-9 2.5l-70.9 70.8c-0.9 3-1.8 5.9-2.5 9l82.4-82.3zm51.5 0.5c-1.8-0.4-3.5-0.8-5.3-1.2l-129.2 129.2c0.4 1.8 0.8 3.5 1.2 5.3l133.3-133.3zm80.9 127.4c0.5-2.6 0.9-5.1 1.2-7.7l-95.7 95.7c2.6-0.3 5.2-0.7 7.7-1.2l86.8-86.8zm1.8-27.8c-0.1-2-0.3-4-0.5-6l-121.9 121.8c2 0.2 4 0.4 6 0.5l116.4-116.3zm-1.4-11.7c-0.3-1.8-0.7-3.6-1.1-5.4l-131.1 131c1.8 0.4 3.6 0.8 5.4 1.1l126.8-126.7zm-31.3-59.8c-1.1-1.1-2.2-2.1-3.3-3.2l-155 155c1 1.1 2.1 2.2 3.2 3.3l155.1-155.1zm6.4 149.8c5.5-6.4 10.1-13.2 13.9-20.4l-46.1 46.1c7.2-3.8 14-8.4 20.4-13.9l11.8-11.8zm22.5-100.6c-0.5-1.7-1-3.3-1.5-5l-138.4 138.4c1.7 0.5 3.3 1 5 1.5l134.9-134.9zm-3.2 68.4c1.2-3.2 2.3-6.4 3.2-9.7l-76.2 76.2c3.3-0.9 6.5-2 9.7-3.2l63.3-63.3zm-13.6-103.6c-0.9-1.2-1.8-2.5-2.8-3.7l-154.2 154.1c1.2 1 2.5 1.9 3.7 2.8l153.3-153.2zm13.6 25.4c-0.6-1.6-1.2-3.1-1.9-4.6l-144.3 144.3c1.5 0.7 3.1 1.3 4.6 1.9l141.6-141.6zm-19.4-32.7c-1-1.2-2-2.3-3.1-3.4l-155.1 155.1c1.1 1.1 2.3 2.1 3.4 3.1l154.8-154.8zm10.9 15.1c-0.8-1.3-1.6-2.7-2.5-4l-152.1 152.1c1.3 0.9 2.6 1.7 4 2.5l150.6-150.6zm4.6 8.5c-0.7-1.4-1.4-2.9-2.2-4.3l-148.8 148.8c1.4 0.8 2.8 1.5 4.3 2.2l146.7-146.7z" fill="#C7D0D8" id="change1_1"/></g>
</svg>